<?xml version="1.0" encoding="UTF-8"?>
<svg id="b" data-name="Layer 2" xmlns="http://www.w3.org/2000/svg" width="76.844" height="53.069" viewBox="0 0 76.844 53.069">
  
    <g>
      <path d="m12.63,8.34h-.6c-.21-4.59-1.53-6.18-3.57-6.18h-2.16c-1.5,0-1.56.42-1.56,2.82v5.67h1.32c2.64,0,3.06-.9,3.18-4.2h.48v9.36h-.48c-.12-3.3-.54-4.2-3.18-4.2h-1.32v6.87c0,2.37,0,2.91,2.25,3v.72H0v-.72c1.92-.09,1.92-.63,1.92-3V4.95c0-2.34,0-2.91-1.92-2.97v-.78h12.54l.09,7.14Z"/>
      <path d="m13.53,21.479c1.38,0,1.38-.48,1.38-2.55v-8.399c0-1.35,0-2.58-1.56-2.49v-.78l4.08-.24.21.24-.15,4.65v7.02c0,2.07,0,2.55,1.38,2.55v.72h-5.34v-.72Zm.9-19.379c0-1.11.72-1.98,1.77-1.98,1.08,0,1.74.87,1.74,1.98,0,1.05-.66,1.92-1.74,1.92-1.05,0-1.77-.87-1.77-1.92Z"/>
      <path d="m30.839,21.479v.72h-3.66l-.18-.27v-3.6c-.69,2.79-2.01,4.169-3.75,4.169-2.85,0-4.59-3.06-4.59-7.35,0-4.32,1.74-8.189,5.13-8.189,1.71,0,2.61.93,3.12,2.19l-.06-5.7c0-1.35,0-2.58-1.74-2.49V.24l4.29-.24.21.24-.12,3.69v14.999c0,2.04,0,2.55,1.35,2.55Zm-3.99-4.53v-4.109c0-2.73-.87-5.01-2.58-5.01-1.47,0-2.76,1.32-2.76,7.29,0,3.36.48,6.51,2.37,6.51,1.2,0,2.34-1.56,2.97-4.68Z"/>
      <path d="m42.599,21.479v.72h-3.66l-.18-.27v-3.6c-.69,2.79-2.01,4.169-3.75,4.169-2.85,0-4.59-3.06-4.59-7.35,0-4.32,1.74-8.189,5.13-8.189,1.71,0,2.61.93,3.12,2.19l-.06-5.7c0-1.35,0-2.58-1.74-2.49V.24l4.29-.24.21.24-.12,3.69v14.999c0,2.04,0,2.55,1.35,2.55Zm-3.99-4.53v-4.109c0-2.73-.87-5.01-2.58-5.01-1.47,0-2.76,1.32-2.76,7.29,0,3.36.48,6.51,2.37,6.51,1.2,0,2.34-1.56,2.97-4.68Z"/>
      <path d="m42.6,21.479c1.35,0,1.35-.51,1.35-2.55V3.51c0-1.35,0-2.61-1.53-2.49V.24l4.08-.24.21.24-.12,4.8v13.889c0,2.04,0,2.55,1.32,2.55v.72h-5.31v-.72Z"/>
      <path d="m57.839,17.37c-.06,2.55-1.41,5.129-4.59,5.129-3.45,0-5.64-3.09-5.64-7.77,0-4.8,2.4-7.77,5.34-7.77,3.21,0,4.86,2.79,4.86,7.379h-7.32v.39c0,3.87.66,6.9,3.42,6.9,2.19,0,3.39-2.04,3.45-4.26h.48Zm-7.32-3.81h4.5c.03-3.18-.33-5.82-2.07-5.82-1.53,0-2.31,2.1-2.43,5.82Z"/>
      <path d="m67.739,10.17c0,1.62-.78,2.729-1.83,2.729-.57,0-1.17-.45-1.35-1.14.69-.9.99-1.77.99-2.55-.03-.78-.33-1.2-.9-1.2-1.23,0-2.46,2.37-3.03,6.06v4.86c0,2.04,0,2.55,1.53,2.55v.72h-5.49v-.72c1.35,0,1.35-.51,1.35-2.55v-8.399c0-1.35,0-2.58-1.56-2.55v-.72l3.93-.24.21.24-.09,5.04c.69-3.27,1.92-5.34,3.81-5.34,1.47,0,2.43,1.38,2.43,3.21Z"/>
      <path d="m68.055,16.29h.51c.09,4.08,2.25,5.43,4.02,5.43,1.35,0,2.61-.99,2.61-2.73,0-1.95-1.53-2.55-3.51-3.21-1.83-.57-3.66-1.56-3.63-4.5.03-1.65.69-2.82,1.59-3.51.69-.51,1.62-.78,2.58-.78.87,0,1.62.24,2.1.51.69.36,1.05.84,1.26.84.24,0,.27-.21.3-1.35h.42l.06,5.31h-.48c-.18-2.73-1.59-4.53-3.66-4.53-1.38,0-2.7.81-2.7,2.52,0,1.74,1.29,2.28,2.97,2.82,2.31.75,4.35,1.53,4.35,4.77,0,1.83-.69,2.97-1.68,3.69-.63.51-1.5.93-2.58.93-1.17,0-2.07-.39-2.64-.78-.6-.39-.9-.69-1.11-.69-.27,0-.42.27-.48,1.47h-.39l.09-6.209Z"/>
      <path d="m12.63,32.34h-.6c-.21-4.59-1.53-6.18-3.57-6.18h-2.16c-1.5,0-1.56.42-1.56,2.82v5.67h1.32c2.64,0,3.06-.9,3.18-4.2h.48v9.36h-.48c-.12-3.3-.54-4.2-3.18-4.2h-1.32v6.87c0,2.37,0,2.91,2.25,3v.72H0v-.72c1.92-.09,1.92-.63,1.92-3v-13.53c0-2.34,0-2.91-1.92-2.97v-.78h12.54l.09,7.14Z"/>
      <path d="m22.109,41.37c-.06,2.55-1.41,5.129-4.59,5.129-3.45,0-5.64-3.09-5.64-7.77,0-4.8,2.4-7.77,5.34-7.77,3.21,0,4.86,2.79,4.86,7.379h-7.32v.39c0,3.87.66,6.9,3.42,6.9,2.19,0,3.39-2.04,3.45-4.26h.48Zm-7.32-3.81h4.5c.03-3.18-.33-5.82-2.07-5.82-1.53,0-2.31,2.1-2.43,5.82Z"/>
      <path d="m32.099,34.17c0,1.62-.78,2.729-1.83,2.729-.57,0-1.17-.45-1.35-1.14.69-.9.99-1.77.99-2.55-.03-.78-.33-1.2-.9-1.2-1.23,0-2.46,2.37-3.03,6.06v4.86c0,2.04,0,2.55,1.53,2.55v.72h-5.49v-.72c1.35,0,1.35-.51,1.35-2.55v-8.399c0-1.35,0-2.58-1.56-2.55v-.72l3.93-.24.21.24-.09,5.04c.69-3.27,1.92-5.34,3.81-5.34,1.47,0,2.43,1.38,2.43,3.21Z"/>
      <path d="m42.227,34.17c0,1.62-.78,2.729-1.83,2.729-.57,0-1.17-.45-1.35-1.14.69-.9.99-1.77.99-2.55-.03-.78-.33-1.2-.9-1.2-1.23,0-2.46,2.37-3.03,6.06v4.86c0,2.04,0,2.55,1.53,2.55v.72h-5.49v-.72c1.35,0,1.35-.51,1.35-2.55v-8.399c0-1.35,0-2.58-1.56-2.55v-.72l3.93-.24.21.24-.09,5.04c.69-3.27,1.92-5.34,3.81-5.34,1.47,0,2.43,1.38,2.43,3.21Z"/>
      <path d="m54.287,31.26v.72c-1.47,0-1.8.9-2.61,3.479l-4.38,14.25c-.75,2.43-1.74,3.36-2.76,3.36-1.23,0-2.34-1.23-2.34-2.91,0-1.41.63-2.52,1.62-2.52.78-.03,1.23.63,1.32,1.32-.78.63-1.44,1.38-1.44,2.22,0,.69.39,1.08.93,1.08.69,0,1.47-.6,2.07-2.61l1.11-3.63-3.33-10.5c-.9-2.82-1.11-3.54-2.58-3.54v-.72h6v.72c-1.74,0-1.44.87-.69,3.57l1.11,4.05.66,2.67h.03l2.04-6.78c.75-2.49,1.05-3.51-1.02-3.51v-.72h4.26Z"/>
    </g>
  
</svg>